<?xml version="1.0" encoding="UTF-8" ?>
<!DOCTYPE svg PUBLIC "-//W3C//DTD SVG 1.1//EN" "http://www.w3.org/Graphics/SVG/1.1/DTD/svg11.dtd">
<svg width="100pt" height="100pt" viewBox="0 0 100 100" version="1.1" xmlns="http://www.w3.org/2000/svg">
<path fill="#ffffff" stroke="#ffffff" stroke-width="0.09375" opacity="1.00" d=" M 45.5 0.0 L 54.5 0.0 C 65.7 2.8 77.1 7.1 85.2 15.8 C 93.7 23.9 97.1 35.5 100.0 46.5 L 100.0 53.5 C 97.1 64.5 93.7 76.1 85.2 84.2 C 77.1 93.0 65.5 96.8 54.4 100.0 L 45.6 100.0 C 34.8 97.3 24.0 93.1 15.8 85.2 C 6.9 77.7 3.3 66.1 0.0 55.3 L 0.0 44.7 C 2.9 35.6 6.0 26.5 11.8 18.8 C 20.4 8.7 32.8 2.9 45.5 0.0 M 21.0 26.1 C 21.2 40.2 20.5 54.4 20.7 68.5 C 20.0 72.1 22.9 76.4 26.8 74.9 C 31.7 69.6 27.9 61.5 30.1 55.1 C 34.5 53.0 39.7 54.2 44.4 53.5 C 45.0 60.6 45.3 67.7 45.9 74.7 C 48.4 74.4 52.2 75.4 53.6 72.7 C 54.8 66.7 53.9 60.5 54.3 54.5 C 59.5 54.4 64.7 54.5 70.0 54.7 C 70.0 61.1 70.0 67.4 70.1 73.8 C 73.0 73.8 76.0 73.8 79.0 73.8 C 78.8 57.1 80.2 40.3 77.3 23.8 C 75.1 25.1 72.3 25.5 70.3 27.3 C 69.4 33.3 70.0 39.4 69.7 45.5 C 64.5 45.6 59.2 45.5 54.0 45.3 C 54.0 39.1 54.0 32.8 54.0 26.6 C 51.5 25.9 48.9 25.3 46.4 24.7 C 45.0 31.3 45.1 38.2 44.6 45.0 C 41.0 45.0 33.8 45.0 30.2 45.0 C 29.7 39.1 30.4 33.0 28.5 27.4 C 27.3 23.9 23.5 25.8 21.0 26.1 Z" />
</svg>
